{
	"asset":{
		"generator":"Khronos glTF Blender I/O v4.0.44",
		"version":"2.0"
	},
	"scene":0,
	"scenes":[
		{
			"name":"Scene",
			"nodes":[
				0
			]
		}
	],
	"nodes":[
		{
			"mesh":0,
			"name":"Plane"
		}
	],
	"materials":[
		{
			"doubleSided":true,
			"name":"Material.003",
			"pbrMetallicRoughness":{
				"baseColorTexture":{
					"index":0
				},
				"metallicFactor":0,
				"roughnessFactor":0.5
			}
		}
	],
	"meshes":[
		{
			"name":"Plane.003",
			"primitives":[
				{
					"attributes":{
						"POSITION":0,
						"NORMAL":1,
						"TEXCOORD_0":2
					},
					"indices":3,
					"material":0
				}
			]
		}
	],
	"textures":[
		{
			"sampler":0,
			"source":0
		}
	],
	"images":[
		{
			"mimeType":"image/png",
			"name":"grid",
			"uri":"grid.png"
		}
	],
	"accessors":[
		{
			"bufferView":0,
			"componentType":5126,
			"count":2601,
			"max":[
				250,
				0,
				250
			],
			"min":[
				-250,
				0,
				-250
			],
			"type":"VEC3"
		},
		{
			"bufferView":1,
			"componentType":5126,
			"count":2601,
			"type":"VEC3"
		},
		{
			"bufferView":2,
			"componentType":5126,
			"count":2601,
			"type":"VEC2"
		},
		{
			"bufferView":3,
			"componentType":5123,
			"count":15000,
			"type":"SCALAR"
		}
	],
	"bufferViews":[
		{
			"buffer":0,
			"byteLength":31212,
			"byteOffset":0,
			"target":34962
		},
		{
			"buffer":0,
			"byteLength":31212,
			"byteOffset":31212,
			"target":34962
		},
		{
			"buffer":0,
			"byteLength":20808,
			"byteOffset":62424,
			"target":34962
		},
		{
			"buffer":0,
			"byteLength":30000,
			"byteOffset":83232,
			"target":34963
		}
	],
	"samplers":[
		{
			"magFilter":9729,
			"minFilter":9987
		}
	],
	"buffers":[
		{
			"byteLength":113232,
			"uri":"plane.bin"
		}
	]
}
